<?xml version="1.0" standalone="no"?>
<!DOCTYPE svg PUBLIC "-//W3C//DTD SVG 20010904//EN"
 "http://www.w3.org/TR/2001/REC-SVG-20010904/DTD/svg10.dtd">
<svg version="1.0" xmlns="http://www.w3.org/2000/svg"
 width="64.000000pt" height="64.000000pt" viewBox="0 0 64.000000 64.000000"
 preserveAspectRatio="xMidYMid meet">

<g transform="translate(0.000000,64.000000) scale(0.100000,-0.100000)"
fill="#000000" stroke="none">
<path d="M134 571 c-38 -23 -58 -70 -50 -113 4 -20 27 -56 56 -88 l50 -55 50
55 c55 61 69 103 49 151 -14 36 -62 69 -99 69 -14 0 -39 -9 -56 -19z m86 -66
c15 -18 10 -45 -12 -59 -35 -22 -74 27 -48 59 16 19 44 19 60 0z"/>
<path d="M375 436 c-80 -37 -116 -129 -81 -209 8 -18 44 -63 80 -102 l66 -70
66 70 c93 99 112 152 80 229 -31 74 -138 116 -211 82z m105 -106 c11 -11 20
-29 20 -40 0 -26 -34 -60 -60 -60 -26 0 -60 34 -60 60 0 11 9 29 20 40 11 11
29 20 40 20 11 0 29 -9 40 -20z"/>
<path d="M60 329 c0 -7 18 -34 40 -60 22 -26 40 -50 40 -52 0 -3 -18 -12 -40
-21 l-40 -16 0 -65 0 -65 165 0 c163 0 165 0 153 20 -12 18 -24 20 -145 20
l-133 0 0 35 c0 30 5 37 40 55 22 11 40 24 40 29 0 5 -16 29 -36 53 -35 41
-36 43 -15 46 37 6 17 27 -27 30 -29 2 -42 -1 -42 -9z"/>
</g>
</svg>
