<?xml version="1.0" standalone="no"?>
<!DOCTYPE svg PUBLIC "-//W3C//DTD SVG 20010904//EN"
 "http://www.w3.org/TR/2001/REC-SVG-20010904/DTD/svg10.dtd">
<svg version="1.0" xmlns="http://www.w3.org/2000/svg"
 width="48.000000pt" height="48.000000pt" viewBox="0 0 48.000000 48.000000"
 preserveAspectRatio="xMidYMid meet">

<g transform="translate(0.000000,48.000000) scale(0.100000,-0.100000)"
fill="#000000" stroke="none">
<path d="M73 418 c-19 -26 -35 -116 -24 -137 6 -11 11 -62 11 -114 0 -129 -3
-127 182 -127 181 0 178 -2 178 129 0 51 5 101 11 112 11 21 -5 111 -24 137
-7 9 -53 12 -167 12 -114 0 -160 -3 -167 -12z m324 -65 c17 -74 -16 -108 -78
-82 -23 9 -33 9 -42 0 -14 -14 -60 -14 -74 0 -9 9 -19 9 -42 0 -62 -26 -95 8
-78 82 l12 47 145 0 145 0 12 -47z m-128 -117 c18 8 34 8 46 2 9 -6 30 -8 46
-6 l30 5 -3 -81 c-3 -68 -6 -81 -20 -84 -16 -3 -18 5 -18 62 l0 66 -110 0
-110 0 0 -66 c0 -57 -2 -65 -17 -62 -15 3 -18 16 -21 84 l-3 81 30 -5 c16 -2
37 0 46 6 12 6 28 6 46 -2 21 -7 37 -7 58 0z m-49 -116 c0 -49 -1 -50 -30 -50
-29 0 -30 1 -30 50 0 49 1 50 30 50 29 0 30 -1 30 -50z m100 0 c0 -49 -1 -50
-30 -50 -29 0 -30 1 -30 50 0 49 1 50 30 50 29 0 30 -1 30 -50z"/>
<path d="M120 365 c0 -8 7 -15 15 -15 8 0 15 7 15 15 0 8 -7 15 -15 15 -8 0
-15 -7 -15 -15z"/>
<path d="M170 365 c0 -8 7 -15 15 -15 8 0 15 7 15 15 0 8 -7 15 -15 15 -8 0
-15 -7 -15 -15z"/>
</g>
</svg>
