<?xml version="1.0" standalone="no"?>
<!DOCTYPE svg PUBLIC "-//W3C//DTD SVG 20010904//EN"
 "http://www.w3.org/TR/2001/REC-SVG-20010904/DTD/svg10.dtd">
<svg version="1.0" xmlns="http://www.w3.org/2000/svg"
 width="48.000000pt" height="48.000000pt" viewBox="0 0 48.000000 48.000000"
 preserveAspectRatio="xMidYMid meet">

<g transform="translate(0.000000,48.000000) scale(0.100000,-0.100000)"
fill="#000000" stroke="none">
<path d="M130 430 c0 -5 -7 -10 -15 -10 -27 0 -55 -38 -55 -75 l0 -35 165 0
165 0 0 -45 c0 -33 4 -45 15 -45 12 0 15 16 15 80 0 67 -3 83 -20 100 -11 11
-27 20 -35 20 -8 0 -15 5 -15 10 0 6 -7 10 -15 10 -8 0 -15 -4 -15 -10 0 -6
-33 -10 -80 -10 -47 0 -80 4 -80 10 0 6 -7 10 -15 10 -8 0 -15 -4 -15 -10z m0
-50 c0 -5 7 -10 15 -10 8 0 15 5 15 10 0 6 33 10 80 10 47 0 80 -4 80 -10 0
-14 28 -12 33 3 5 16 37 -9 37 -29 0 -11 -29 -14 -150 -14 -153 0 -171 5 -138
38 15 15 28 16 28 2z"/>
<path d="M60 185 c0 -124 2 -125 180 -125 127 0 142 2 160 20 25 25 29 100 5
100 -10 0 -15 -10 -15 -33 0 -18 -5 -38 -12 -45 -17 -17 -259 -17 -276 0 -7 7
-12 43 -12 90 0 63 -3 78 -15 78 -12 0 -15 -16 -15 -85z"/>
</g>
</svg>
